<svg version="1.1" id="morizke2-logo" xmlns="http://www.w3.org/2000/svg" xmlns:xlink="http://www.w3.org/1999/xlink" x="0px"
	 y="0px" viewBox="0 0 40 40" style="enable-background:new 0 0 40 40;" xml:space="preserve">
<style type="text/css">
	.st0{fill:#FF9933;}
</style>
<g>
	<g>
		<path class="st0" d="M15.8,13.2l1.6,12.5c0,0.5,0.1,0.9,0.1,1.3h-1.3L15,17.7l-0.2-2.5h-0.1L11.1,27H9.6l-2.8-9.4l-0.6-2.5H6
			L4.6,27H3.3c0-0.4,0.1-0.9,0.2-1.4L5,13.2h1.8l2.9,9.6l0.6,2.3h0.1L14,13.2H15.8z"/>
		<path class="st0" d="M26.8,17.5l0.2,1l-5.7,7.4h5.6l0,1.1h-7.1l-0.2-1l5.7-7.4H20l0-1.1H26.8z"/>
		<path class="st0" d="M32.7,13c2.7,0,4,1.9,4,4c0,2.6-1.9,4.8-4.4,7.3l-1.5,1.5H37L37,27h-7.8l-0.1-1.3l1.8-1.9
			c2.7-2.7,4.3-4.7,4.3-6.8c0-1.6-0.9-2.8-2.7-2.8c-1,0-1.9,0.4-2.8,1l-0.7-0.9C30.2,13.4,31.4,13,32.7,13z"/>
	</g>
	<path class="st0" d="M0.3,0v39.7H40V0H0.3z M1.4,38.6V1.1h37.5v37.5H1.4z"/>
</g>
</svg>
