<?xml version="1.0" encoding="utf-8"?>
<!-- Generator: Adobe Illustrator 21.0.2, SVG Export Plug-In . SVG Version: 6.00 Build 0)  -->
<svg version="1.1" id="pickles2-logo" xmlns="http://www.w3.org/2000/svg" xmlns:xlink="http://www.w3.org/1999/xlink" x="0px"
	 y="0px" viewBox="0 0 377.9 84.3" style="enable-background:new 0 0 377.9 84.3;" xml:space="preserve">
<style type="text/css">
	.st0{fill:#FF9933;}
</style>
<g>
	<g>
		<path class="st0" d="M151.9,22l5.3,40.6c0.1,1.5,0.4,2.9,0.5,4.3h-4.3l-4-30.4l-0.7-8h-0.2l-11.6,38.4h-5.1l-9.2-30.4l-2.1-8h-0.2
			l-4.8,38.4h-4.2c0.1-1.3,0.3-3,0.5-4.5l5.1-40.4h6l9.4,31.2l1.9,7.6h0.3L145.9,22H151.9z"/>
		<path class="st0" d="M179.1,34.9c8.3,0,13.3,6.8,13.3,16.1c0,8.1-4.3,16.9-13.9,16.9c-8.3,0-13.3-6.8-13.3-16.1
			C165.2,43.8,169.6,34.9,179.1,34.9z M178.7,38.8c-2.5,0-4.4,0.9-5.8,2.1c-2,2.1-3.3,5.7-3.3,10.2c0,7.4,3.1,12.9,9.2,12.9
			c2.5,0,4.5-0.9,5.8-2.3c2.1-2.1,3.2-5.7,3.2-10.2C187.9,44.2,184.7,38.8,178.7,38.8z"/>
		<path class="st0" d="M204.8,35.4l1,6c2.2-4,5.1-6.3,8.7-6.3c1.7,0,3.1,0.5,4.2,1.1l-0.9,4c-1.2-0.4-2.3-0.5-3.5-0.5
			c-3.1,0-6,1.9-8.2,6.1v21.1h-4.4V47.7c0-2.3-0.1-5.2-0.6-11.8L204.8,35.4z"/>
		<path class="st0" d="M227.8,23c1.8,0,3,1.2,3,3.1c0,1.9-1.3,3.3-3.3,3.3c-1.8,0-3.1-1.2-3.1-3C224.4,24.4,225.8,23,227.8,23z
			 M229.7,35.8v31.1h-4.4v-31L229.7,35.8z"/>
		<path class="st0" d="M261.5,35.8l0.7,3.3l-18.7,24.1h18.3l0.1,3.6h-23.2l-0.5-3.3l18.5-24.1h-17.5l-0.1-3.6H261.5z"/>
		<path class="st0" d="M295.2,35.8c-0.1,0.7-0.7,1.5-1.4,2.3l-10.5,11.6l11.3,14.5c0.7,0.9,1.3,1.8,1.5,2.6h-4.8l-10.8-14.1l-5,5.4
			v8.7H271V16.7l4.4-0.1v36.1l15.3-16.9H295.2z"/>
		<path class="st0" d="M315.2,35c7.4,0,11.1,5.5,11.1,12.4c0,1.7-0.2,3.3-0.5,5h-20c0.3,7.8,4.2,11.4,9.6,11.4
			c2.7,0,5.8-0.5,8.8-1.7l1.2,3.1c-3.6,1.7-7.2,2.5-10.8,2.5c-7.4,0-13.3-5.4-13.3-15.8C301.4,42.4,306.7,35,315.2,35z M306,49h15.7
			c0.1-0.7,0.1-1.6,0.1-2.4c0-4.5-2.4-7.9-7-7.9C309.8,38.7,306.6,42.6,306,49z"/>
		<path class="st0" d="M362,21.3c8.9,0,13.1,6.1,13.1,12.9c0,8.5-6.2,15.7-14.4,23.8l-4.9,4.9h20l0.2,3.9h-25.3l-0.5-4.2l6-6
			c8.8-8.8,14.1-15.3,14.1-22.2c0-5.2-2.8-9-8.6-9c-3.1,0-6.3,1.2-9,3.1l-2.1-2.9C353.7,22.7,357.8,21.3,362,21.3z"/>
	</g>
	<g>
		<path class="st0" d="M33.2,28.3l3.4,25.9c0.1,0.9,0.3,1.9,0.3,2.7h-2.7l-2.6-19.4l-0.5-5.1H31l-7.4,24.5h-3.2l-5.8-19.4l-1.3-5.1
			H13l-3,24.5H7.3c0-0.9,0.2-1.9,0.3-2.9l3.2-25.7h3.8l6,19.9l1.2,4.9h0.2l7.3-24.8H33.2z"/>
		<path class="st0" d="M56,37.1l0.5,2.1L44.6,54.6h11.7l0.1,2.3H41.5l-0.3-2.1L53,39.4H41.9l0-2.3H56z"/>
		<path class="st0" d="M68.3,27.9c5.7,0,8.3,3.9,8.3,8.2c0,5.4-4,10-9.2,15.2l-3.1,3.1h12.8l0.1,2.5H61.1l-0.3-2.7l3.8-3.8
			c5.6-5.6,9-9.8,9-14.2c0-3.3-1.8-5.8-5.5-5.8c-2,0-4,0.8-5.7,2L61,30.6C63,28.7,65.6,27.9,68.3,27.9z"/>
	</g>
	<path class="st0" d="M1,0.9v82.4h82.4V0.9H1z M3.3,81V3.2H81V81H3.3z"/>
</g>
</svg>
